<svg width="150" height="31" viewBox="0 0 150 31" fill="none" xmlns="http://www.w3.org/2000/svg">
<path d="M23.8636 27.2054L22.5538 28.5152C22.4222 28.6468 22.2596 28.7432 22.0811 28.7957C21.9025 28.8483 21.7137 28.8552 21.5317 28.8159C21.3498 28.7766 21.1806 28.6923 21.0397 28.5708C20.8987 28.4492 20.7905 28.2943 20.7249 28.12L16.8973 17.9492L12.0291 22.6058L12.3967 26.4471C12.4818 27.1945 12.4031 27.6443 11.7289 28.3184L10.8472 29.2001C10.7121 29.3442 10.5443 29.4536 10.3579 29.519C10.1715 29.5845 9.97211 29.604 9.77657 29.576C9.50148 29.5352 9.11869 29.3826 8.84909 28.8886L6.33078 24.4199C6.31215 24.3865 6.29488 24.3515 6.27912 24.3161C6.2772 24.3132 6.27467 24.3107 6.27179 24.3087C6.23603 24.2933 6.20122 24.2759 6.16745 24.2566L1.67564 21.7172C1.19541 21.4485 1.04928 21.0712 1.01139 20.801C0.985896 20.6196 1.00334 20.4347 1.0623 20.2612C1.12127 20.0877 1.22011 19.9305 1.3509 19.8021L2.28183 18.8712C2.78519 18.3679 3.49963 18.1051 4.15157 18.1824L7.92154 18.5504L12.6392 13.691L2.48159 9.87478C2.3074 9.80935 2.15239 9.70123 2.03074 9.56044C1.9091 9.41957 1.82469 9.25048 1.78524 9.06864C1.74579 8.88674 1.75256 8.69791 1.80494 8.51929C1.8573 8.34075 1.9536 8.17816 2.08501 8.04641L3.40909 6.7223C3.59753 6.54129 3.82431 6.40508 4.07262 6.32369C4.32093 6.24236 4.58436 6.21797 4.84341 6.25243L18.4753 7.57846L21.243 4.66119C21.4398 4.44174 22.0126 3.86111 22.1459 3.72777C24.8664 1.01024 27.3728 0.269235 28.8519 1.7483C29.3174 2.21377 29.9944 3.2628 29.2991 5.05624C28.8893 6.11561 28.0735 7.26014 26.8749 8.45873C26.743 8.59062 26.1639 9.16182 25.9415 9.36161L23.0237 12.1279L24.3345 25.775C24.3682 26.0335 24.3434 26.2962 24.2618 26.5438C24.1803 26.7913 24.0442 27.0174 23.8636 27.2054Z" fill="#FFA500"/>
<path d="M143.67 21.4091C143.158 21.4091 142.647 21.3683 142.135 21.2869C141.623 21.2172 141.14 21.1067 140.687 20.9555C140.233 20.7927 139.826 20.5949 139.466 20.3623C139.256 20.2228 139.111 20.0541 139.03 19.8564C138.948 19.6587 138.919 19.4668 138.942 19.2807C138.977 19.083 139.053 18.9144 139.169 18.7748C139.297 18.6236 139.454 18.5306 139.64 18.4957C139.826 18.4608 140.03 18.5131 140.251 18.6527C140.762 18.9551 141.303 19.1761 141.873 19.3156C142.443 19.4552 143.042 19.525 143.67 19.525C144.589 19.525 145.258 19.3738 145.676 19.0714C146.095 18.7574 146.304 18.3561 146.304 17.8677C146.304 17.4606 146.153 17.1408 145.851 16.9082C145.56 16.6756 145.054 16.4837 144.333 16.3325L142.414 15.9312C141.309 15.6986 140.483 15.309 139.937 14.7624C139.402 14.2042 139.134 13.4715 139.134 12.5643C139.134 11.9944 139.251 11.4769 139.483 11.0117C139.716 10.5465 140.041 10.1452 140.46 9.80795C140.89 9.47067 141.396 9.21481 141.978 9.04035C142.571 8.85427 143.222 8.76123 143.932 8.76123C144.629 8.76123 145.292 8.84846 145.92 9.02291C146.548 9.19736 147.113 9.45323 147.613 9.7905C147.799 9.91843 147.921 10.0754 147.979 10.2615C148.049 10.4476 148.066 10.6337 148.031 10.8198C147.996 10.9942 147.915 11.1454 147.787 11.2733C147.659 11.4013 147.496 11.4769 147.299 11.5001C147.113 11.5234 146.897 11.4652 146.653 11.3257C146.223 11.0815 145.787 10.907 145.345 10.8023C144.903 10.6977 144.426 10.6453 143.914 10.6453C143.379 10.6453 142.92 10.7209 142.536 10.8721C142.152 11.0233 141.856 11.2385 141.646 11.5176C141.449 11.7851 141.35 12.1049 141.35 12.4771C141.35 12.8958 141.489 13.233 141.768 13.4889C142.048 13.7331 142.524 13.925 143.199 14.0646L145.101 14.4658C146.252 14.7101 147.107 15.0939 147.665 15.6172C148.235 16.1406 148.52 16.8384 148.52 17.7107C148.52 18.2689 148.403 18.7748 148.171 19.2284C147.95 19.682 147.624 20.0716 147.194 20.3972C146.775 20.7229 146.269 20.9729 145.676 21.1474C145.083 21.3218 144.414 21.4091 143.67 21.4091Z" fill="#FFA500"/>
<path d="M132.5 21.4091C131.139 21.4091 129.988 21.1532 129.046 20.6415C128.115 20.1297 127.406 19.4028 126.917 18.4608C126.429 17.5188 126.185 16.4023 126.185 15.1113C126.185 14.1344 126.324 13.2563 126.603 12.4771C126.894 11.6979 127.307 11.0349 127.842 10.4883C128.388 9.93006 129.051 9.50556 129.831 9.21481C130.61 8.91242 131.494 8.76123 132.482 8.76123C133.134 8.76123 133.785 8.84264 134.436 9.00546C135.099 9.15666 135.721 9.41834 136.303 9.7905C136.501 9.91843 136.628 10.0754 136.687 10.2615C136.756 10.4476 136.768 10.6395 136.722 10.8372C136.675 11.0233 136.588 11.1861 136.46 11.3257C136.332 11.4652 136.169 11.5525 135.971 11.5874C135.785 11.6223 135.576 11.5757 135.343 11.4478C134.901 11.1919 134.454 11.0059 134 10.8896C133.546 10.7733 133.041 10.7151 132.482 10.7151C131.622 10.7151 130.895 10.8896 130.302 11.2385C129.709 11.5757 129.261 12.07 128.958 12.7213C128.668 13.3726 128.522 14.1693 128.522 15.1113C128.522 16.5418 128.865 17.6292 129.551 18.3736C130.238 19.1179 131.255 19.4901 132.604 19.4901C133.07 19.4901 133.541 19.4436 134.017 19.3505C134.494 19.2575 134.96 19.1295 135.413 18.9667L134.977 19.9611V16.2453H133.058C132.767 16.2453 132.54 16.1697 132.378 16.0185C132.226 15.8673 132.151 15.6637 132.151 15.4079C132.151 15.1404 132.226 14.9369 132.378 14.7973C132.54 14.6577 132.767 14.588 133.058 14.588H135.936C136.227 14.588 136.448 14.6694 136.599 14.8322C136.762 14.9834 136.844 15.2044 136.844 15.4951V19.7343C136.844 19.9902 136.791 20.2053 136.687 20.3798C136.594 20.5542 136.437 20.6822 136.216 20.7636C135.704 20.9497 135.117 21.1067 134.454 21.2346C133.791 21.3509 133.139 21.4091 132.5 21.4091Z" fill="#FFA500"/>
<path d="M114.583 21.3742C114.246 21.3742 113.984 21.2811 113.798 21.0951C113.623 20.909 113.536 20.6415 113.536 20.2926V9.91264C113.536 9.5521 113.623 9.2788 113.798 9.09271C113.984 8.895 114.222 8.79614 114.513 8.79614C114.781 8.79614 114.978 8.84848 115.106 8.95315C115.246 9.04619 115.409 9.20901 115.595 9.44162L122.276 18.1119H121.823V9.8603C121.823 9.52303 121.91 9.26135 122.084 9.07527C122.27 8.88918 122.532 8.79614 122.869 8.79614C123.207 8.79614 123.462 8.88918 123.637 9.07527C123.811 9.26135 123.899 9.52303 123.899 9.8603V20.3275C123.899 20.6531 123.817 20.909 123.654 21.0951C123.492 21.2811 123.271 21.3742 122.991 21.3742C122.724 21.3742 122.509 21.3218 122.346 21.2172C122.195 21.1125 122.026 20.9439 121.84 20.7113L115.176 12.041H115.612V20.2926C115.612 20.6415 115.525 20.909 115.35 21.0951C115.176 21.2811 114.92 21.3742 114.583 21.3742Z" fill="#FFA500"/>
<path d="M109.729 21.3742C109.368 21.3742 109.089 21.2753 108.891 21.0776C108.705 20.8683 108.612 20.5833 108.612 20.2228V9.94753C108.612 9.57537 108.705 9.29043 108.891 9.09271C109.089 8.895 109.368 8.79614 109.729 8.79614C110.089 8.79614 110.363 8.895 110.549 9.09271C110.746 9.29043 110.845 9.57537 110.845 9.94753V20.2228C110.845 20.5833 110.752 20.8683 110.566 21.0776C110.38 21.2753 110.101 21.3742 109.729 21.3742Z" fill="#FFA500"/>
<path d="M93.5178 21.3742C93.2037 21.3742 92.9479 21.2986 92.7502 21.1474C92.5641 20.9962 92.4129 20.7578 92.2966 20.4321L88.6505 10.122C88.5226 9.74982 88.5458 9.4358 88.7203 9.17994C88.9064 8.92407 89.2146 8.79614 89.6449 8.79614C89.9589 8.79614 90.2032 8.87174 90.3776 9.02293C90.5521 9.16249 90.6916 9.38928 90.7963 9.7033L93.9364 19.0191H93.2386L96.5183 9.72074C96.6346 9.40673 96.78 9.17412 96.9545 9.02293C97.1289 8.87174 97.3557 8.79614 97.6348 8.79614C97.914 8.79614 98.1349 8.87174 98.2978 9.02293C98.4606 9.17412 98.6001 9.41254 98.7164 9.73819L101.891 19.0191H101.281L104.473 9.7033C104.578 9.40091 104.718 9.17412 104.892 9.02293C105.067 8.87174 105.305 8.79614 105.607 8.79614C105.979 8.79614 106.253 8.92407 106.427 9.17994C106.602 9.4358 106.625 9.74982 106.497 10.122L102.816 20.4496C102.7 20.7636 102.549 20.9962 102.363 21.1474C102.176 21.2986 101.926 21.3742 101.612 21.3742C101.298 21.3742 101.048 21.2986 100.862 21.1474C100.676 20.9962 100.525 20.7578 100.409 20.4321L97.3732 11.7793H97.7744L94.704 20.4496C94.5877 20.7636 94.4365 20.9962 94.2505 21.1474C94.076 21.2986 93.8318 21.3742 93.5178 21.3742Z" fill="#FFA500"/>
<path d="M80.0183 21.235C79.6345 21.235 79.3379 21.1361 79.1286 20.9384C78.9309 20.729 78.832 20.4325 78.832 20.0487V10.1223C78.832 9.73852 78.9309 9.44776 79.1286 9.25005C79.3379 9.04071 79.6345 8.93604 80.0183 8.93604H86.2463C86.537 8.93604 86.758 9.01163 86.9092 9.16282C87.072 9.31402 87.1534 9.52917 87.1534 9.8083C87.1534 10.0991 87.072 10.3258 86.9092 10.4887C86.758 10.6399 86.537 10.7155 86.2463 10.7155H80.9778V14.0998H85.8625C86.1649 14.0998 86.3917 14.1754 86.5428 14.3266C86.694 14.4778 86.7696 14.6988 86.7696 14.9895C86.7696 15.2803 86.694 15.5013 86.5428 15.6525C86.3917 15.8037 86.1649 15.8793 85.8625 15.8793H80.9778V19.4555H86.2463C86.537 19.4555 86.758 19.5311 86.9092 19.6823C87.072 19.8335 87.1534 20.0545 87.1534 20.3452C87.1534 20.636 87.072 20.857 86.9092 21.0082C86.758 21.1594 86.537 21.235 86.2463 21.235H80.0183Z" fill="#FFA500"/>
<path d="M68.0076 21.235C67.6238 21.235 67.3272 21.1361 67.1179 20.9384C66.9201 20.729 66.8213 20.4325 66.8213 20.0487V10.1223C66.8213 9.73852 66.9201 9.44776 67.1179 9.25005C67.3272 9.04071 67.6238 8.93604 68.0076 8.93604H72.1944C73.0551 8.93604 73.7878 9.06397 74.3925 9.31983C74.9973 9.5757 75.4567 9.94205 75.7707 10.4189C76.0964 10.8957 76.2592 11.4656 76.2592 12.1285C76.2592 12.8729 76.044 13.5009 75.6137 14.0126C75.1834 14.5243 74.5961 14.8674 73.8517 15.0419V14.7802C74.7124 14.9081 75.3811 15.2338 75.8579 15.7571C76.3348 16.2805 76.5732 16.9609 76.5732 17.7982C76.5732 18.8915 76.201 19.7405 75.4567 20.3452C74.724 20.9384 73.7005 21.235 72.3863 21.235H68.0076ZM68.9671 19.5428H72.1072C72.8981 19.5428 73.4796 19.3916 73.8517 19.0892C74.2239 18.7752 74.41 18.31 74.41 17.6936C74.41 17.0655 74.2239 16.6003 73.8517 16.2979C73.4796 15.9956 72.8981 15.8444 72.1072 15.8444H68.9671V19.5428ZM68.9671 14.1522H71.8106C72.5782 14.1522 73.1481 14.0068 73.5203 13.716C73.9041 13.4137 74.096 12.9717 74.096 12.3902C74.096 11.8087 73.9041 11.3726 73.5203 11.0818C73.1481 10.7794 72.5782 10.6282 71.8106 10.6282H68.9671V14.1522Z" fill="#FFA500"/>
<path d="M58.6366 21.4091C57.4503 21.4091 56.4094 21.1474 55.5139 20.624C54.63 20.1007 53.9438 19.368 53.4554 18.4259C52.9669 17.4722 52.7227 16.3557 52.7227 15.0764C52.7227 14.1111 52.8622 13.2447 53.1413 12.4771C53.4205 11.6979 53.8159 11.0349 54.3276 10.4883C54.851 9.93006 55.4732 9.50556 56.1943 9.21481C56.927 8.91242 57.7411 8.76123 58.6366 8.76123C59.8345 8.76123 60.8754 9.02291 61.7593 9.54627C62.6432 10.058 63.3294 10.7849 63.8179 11.7269C64.3063 12.669 64.5506 13.7797 64.5506 15.059C64.5506 16.0243 64.411 16.8965 64.1319 17.6758C63.8527 18.455 63.4515 19.1237 62.9281 19.682C62.4164 20.2402 61.7942 20.6705 61.0615 20.9729C60.3404 21.2637 59.5321 21.4091 58.6366 21.4091ZM58.6366 19.4901C59.3926 19.4901 60.0322 19.3156 60.5556 18.9667C61.0906 18.6178 61.4976 18.1119 61.7768 17.449C62.0675 16.7861 62.2129 15.9952 62.2129 15.0764C62.2129 13.6808 61.8989 12.5992 61.2708 11.8316C60.6544 11.064 59.7764 10.6802 58.6366 10.6802C57.8923 10.6802 57.2526 10.8547 56.7176 11.2036C56.1826 11.5408 55.7698 12.0409 55.479 12.7039C55.1999 13.3552 55.0603 14.146 55.0603 15.0764C55.0603 16.4604 55.3743 17.542 56.0024 18.3212C56.6304 19.1005 57.5085 19.4901 58.6366 19.4901Z" fill="#FFA500"/>
<path d="M45.1271 21.2346C44.7666 21.2346 44.4874 21.1357 44.2897 20.938C44.092 20.7286 43.9932 20.4437 43.9932 20.0832V10.0172C43.9932 9.64508 44.0862 9.36595 44.2723 9.17987C44.47 8.98216 44.7491 8.8833 45.1097 8.8833C45.4702 8.8833 45.7435 8.98216 45.9296 9.17987C46.1273 9.36595 46.2262 9.64508 46.2262 10.0172V19.333H51.2853C51.5993 19.333 51.8377 19.4144 52.0005 19.5773C52.175 19.7401 52.2622 19.9727 52.2622 20.2751C52.2622 20.5774 52.175 20.8159 52.0005 20.9903C51.8377 21.1531 51.5993 21.2346 51.2853 21.2346H45.1271Z" fill="#FFA500"/>
<path d="M37.0613 21.4091C35.7006 21.4091 34.5492 21.1532 33.6071 20.6415C32.6767 20.1297 31.9673 19.4028 31.4788 18.4608C30.9903 17.5188 30.7461 16.4023 30.7461 15.1113C30.7461 14.1344 30.8857 13.2563 31.1648 12.4771C31.4555 11.6979 31.8684 11.0349 32.4034 10.4883C32.95 9.93006 33.6129 9.50556 34.3922 9.21481C35.1714 8.91242 36.0553 8.76123 37.0438 8.76123C37.6951 8.76123 38.3464 8.84264 38.9977 9.00546C39.6606 9.15666 40.2828 9.41834 40.8644 9.7905C41.0621 9.91843 41.19 10.0754 41.2481 10.2615C41.3179 10.4476 41.3296 10.6395 41.283 10.8372C41.2365 11.0233 41.1493 11.1861 41.0214 11.3257C40.8934 11.4652 40.7306 11.5525 40.5329 11.5874C40.3468 11.6223 40.1375 11.5757 39.9049 11.4478C39.4629 11.1919 39.0152 11.0059 38.5616 10.8896C38.108 10.7733 37.6021 10.7151 37.0438 10.7151C36.1832 10.7151 35.4563 10.8896 34.8632 11.2385C34.27 11.5757 33.8223 12.07 33.5199 12.7213C33.2291 13.3726 33.0838 14.1693 33.0838 15.1113C33.0838 16.5418 33.4269 17.6292 34.113 18.3736C34.7992 19.1179 35.8169 19.4901 37.166 19.4901C37.6312 19.4901 38.1022 19.4436 38.579 19.3505C39.0559 19.2575 39.5211 19.1295 39.9746 18.9667L39.5385 19.9611V16.2453H37.6195C37.3288 16.2453 37.102 16.1697 36.9392 16.0185C36.788 15.8673 36.7124 15.6637 36.7124 15.4079C36.7124 15.1404 36.788 14.9369 36.9392 14.7973C37.102 14.6577 37.3288 14.588 37.6195 14.588H40.498C40.7888 14.588 41.0097 14.6694 41.1609 14.8322C41.3237 14.9834 41.4052 15.2044 41.4052 15.4951V19.7343C41.4052 19.9902 41.3528 20.2053 41.2481 20.3798C41.1551 20.5542 40.9981 20.6822 40.7771 20.7636C40.2654 20.9497 39.6781 21.1067 39.0152 21.2346C38.3522 21.3509 37.7009 21.4091 37.0613 21.4091Z" fill="#FFA500"/>
</svg>
